<svg xmlns="http://www.w3.org/2000/svg" viewBox="0 0 512 512" role="img" aria-labelledby="title desc">
  <title id="title">Montgomerie Maxx Royal Golf Club</title>
  <desc id="desc">A navy and gold golf-course badge with a pine tree, golf ball and letter M.</desc>
  <defs>
    <linearGradient id="background" x1="0" y1="0" x2="1" y2="1">
      <stop offset="0" stop-color="#071a2f"/>
      <stop offset="1" stop-color="#123c45"/>
    </linearGradient>
    <linearGradient id="gold" x1="0" y1="0" x2="1" y2="1">
      <stop offset="0" stop-color="#f7dfa0"/>
      <stop offset="0.55" stop-color="#c7a14a"/>
      <stop offset="1" stop-color="#8a6420"/>
    </linearGradient>
  </defs>
  <circle cx="256" cy="256" r="242" fill="url(#background)" stroke="url(#gold)" stroke-width="18"/>
  <circle cx="256" cy="256" r="211" fill="none" stroke="#d7bd78" stroke-width="3" opacity="0.65"/>
  <path d="M256 73 175 205h48l-75 103h83v91h50v-91h83l-75-103h48L256 73Z" fill="#e7d6a5" opacity="0.2"/>
  <path d="M144 353c52-30 171-42 224-4-56 10-97 31-124 66-29-25-62-45-100-62Z" fill="#2d795d"/>
  <circle cx="356" cy="337" r="33" fill="#fff" stroke="#c7a14a" stroke-width="5"/>
  <g fill="#b9c2c9" opacity="0.72">
    <circle cx="345" cy="326" r="3"/><circle cx="359" cy="323" r="3"/><circle cx="369" cy="334" r="3"/>
    <circle cx="349" cy="341" r="3"/><circle cx="363" cy="348" r="3"/>
  </g>
  <path d="M142 327V176h42l72 92 72-92h42v151h-45v-81l-69 87-69-87v81h-45Z" fill="url(#gold)"/>
  <text x="256" y="445" fill="#f1e5bf" font-family="Arial, sans-serif" font-size="25" font-weight="700" letter-spacing="5" text-anchor="middle">BELEK</text>
</svg>
